<?xml version="1.0" encoding="UTF-8" standalone="no"?>
<svg width="122px" height="122px" viewBox="0 0 122 122" version="1.1" xmlns="http://www.w3.org/2000/svg" xmlns:xlink="http://www.w3.org/1999/xlink">
    <!-- Generator: Sketch 40.3 (33839) - http://www.bohemiancoding.com/sketch -->
    <title>Signs / Scorpio</title>
    <desc>Created with Sketch.</desc>
    <defs></defs>
    <g id="Page-1" stroke="none" stroke-width="1" fill="none" fill-rule="evenodd" stroke-linecap="round" stroke-linejoin="round">
        <g id="Horoscope-Signs" transform="translate(-1863.000000, -148.000000)" stroke="#00CC66" stroke-width="2">
            <g id="Large" transform="translate(42.000000, 149.000000)">
                <g id="Signs-/-Scorpio" style="mix-blend-mode: multiply;" transform="translate(1821.000000, 0.000000)">
                    <path d="M60.996,0 C94.132,0 120.994,26.862 120.994,59.997 C120.994,93.133 94.132,119.995 60.996,119.995 C27.861,119.995 0.999,93.133 0.999,59.997 C0.999,26.862 27.861,0 60.996,0 L60.996,0 Z M102.735,90.386 L102.735,83.116 L95.464,83.116 M34,90.3860008 L34,48.3760005 C34.16,11.8550005 86.188,13.966 86.038,48.376 L86.038,83.116 C86.038,83.116 84.976,90.386 93.314,90.386 C96.096,90.386 102.735,83.116 102.735,83.116 M59.974,23.563 L59.974,90.386"></path>
                </g>
            </g>
        </g>
    </g>
</svg>